<svg width="302" height="463" viewBox="0 0 302 463" fill="none" xmlns="http://www.w3.org/2000/svg">
<path d="M55.0918 51C55.0918 52.4971 54.9714 53.9651 54.7415 55.3965C53.9804 60.1351 50.2269 63.8886 45.4883 64.6497C44.0568 64.8796 42.5888 65 41.0918 65C39.5948 65 38.1268 64.8796 36.6953 64.6497C31.9567 63.8886 28.2031 60.1351 27.4421 55.3965C27.2122 53.9651 27.0918 52.4971 27.0918 51C27.0918 49.5029 27.2122 48.0349 27.4421 46.6035C28.2031 41.8649 31.9567 38.1114 36.6953 37.3503C38.1268 37.1204 39.5948 37 41.0918 37C42.5888 37 44.0568 37.1204 45.4883 37.3503C50.2269 38.1114 53.9804 41.8649 54.7415 46.6035C54.9714 48.0349 55.0918 49.5029 55.0918 51Z" fill="#0B5CFF"/>
<path d="M55.0918 51C55.0918 52.4971 54.9714 53.9651 54.7415 55.3965C53.9804 60.1351 50.2269 63.8886 45.4883 64.6497C44.0568 64.8796 42.5888 65 41.0918 65C39.5948 65 38.1268 64.8796 36.6953 64.6497C31.9567 63.8886 28.2031 60.1351 27.4421 55.3965C27.2122 53.9651 27.0918 52.4971 27.0918 51C27.0918 49.5029 27.2122 48.0349 27.4421 46.6035C28.2031 41.8649 31.9567 38.1114 36.6953 37.3503C38.1268 37.1204 39.5948 37 41.0918 37C42.5888 37 44.0568 37.1204 45.4883 37.3503C50.2269 38.1114 53.9804 41.8649 54.7415 46.6035C54.9714 48.0349 55.0918 49.5029 55.0918 51Z" fill="url(#paint0_radial_5085_23374)"/>
<path d="M55.0917 51C55.0917 52.4971 54.9713 53.9651 54.7414 55.3965C53.9803 60.1351 50.2268 63.8886 45.4882 64.6497C44.0567 64.8796 42.5888 65 41.0917 65C39.5947 65 38.1267 64.8796 36.6953 64.6497C31.9566 63.8886 28.2031 60.1351 27.442 55.3965C27.2121 53.965 27.0918 52.4971 27.0918 51C27.0918 49.503 27.2121 48.0349 27.442 46.6034C28.2031 41.8649 31.9567 38.1113 36.6953 37.3502C38.1268 37.1203 39.5947 37 41.0917 37C42.5888 37 44.0568 37.1203 45.4882 37.3502C50.2268 38.1113 53.9803 41.8649 54.7414 46.6034C54.9713 48.0349 55.0917 49.5029 55.0917 51Z" fill="url(#paint1_radial_5085_23374)"/>
<g clip-path="url(#clip0_5085_23374)">
<path d="M44.0918 54.4999C44.0918 55.3282 43.4202 55.9999 42.5918 55.9999H36.0918C34.4349 55.9999 33.0918 54.6567 33.0918 52.9999V47.4999C33.0918 46.6715 33.7634 45.9999 34.5918 45.9999H41.0918C42.7487 45.9999 44.0918 47.343 44.0918 48.9999V54.4999ZM47.8918 46.8998L45.6918 48.5498C45.3141 48.8331 45.0918 49.2777 45.0918 49.7498L45.0918 52.2498C45.0918 52.7219 45.3141 53.1665 45.6918 53.4498L47.8918 55.0998C48.3862 55.4706 49.0918 55.1178 49.0918 54.4998V47.4998C49.0918 46.8818 48.3862 46.529 47.8918 46.8998Z" fill="white"/>
</g>
<path d="M55.0918 124C55.0918 125.497 54.9714 126.965 54.7415 128.397C53.9804 133.135 50.2269 136.889 45.4883 137.65C44.0568 137.88 42.5888 138 41.0918 138C39.5948 138 38.1268 137.88 36.6953 137.65C31.9567 136.889 28.2031 133.135 27.4421 128.397C27.2122 126.965 27.0918 125.497 27.0918 124C27.0918 122.503 27.2122 121.035 27.4421 119.603C28.2031 114.865 31.9567 111.111 36.6953 110.35C38.1268 110.12 39.5948 110 41.0918 110C42.5888 110 44.0568 110.12 45.4883 110.35C50.2269 111.111 53.9804 114.865 54.7415 119.603C54.9714 121.035 55.0918 122.503 55.0918 124Z" fill="#0B5CFF"/>
<path d="M55.0918 124C55.0918 125.497 54.9714 126.965 54.7415 128.397C53.9804 133.135 50.2269 136.889 45.4883 137.65C44.0568 137.88 42.5888 138 41.0918 138C39.5948 138 38.1268 137.88 36.6953 137.65C31.9567 136.889 28.2031 133.135 27.4421 128.397C27.2122 126.965 27.0918 125.497 27.0918 124C27.0918 122.503 27.2122 121.035 27.4421 119.603C28.2031 114.865 31.9567 111.111 36.6953 110.35C38.1268 110.12 39.5948 110 41.0918 110C42.5888 110 44.0568 110.12 45.4883 110.35C50.2269 111.111 53.9804 114.865 54.7415 119.603C54.9714 121.035 55.0918 122.503 55.0918 124Z" fill="url(#paint2_radial_5085_23374)"/>
<path d="M55.0917 124C55.0917 125.497 54.9713 126.965 54.7414 128.396C53.9803 133.135 50.2268 136.889 45.4882 137.65C44.0567 137.88 42.5888 138 41.0917 138C39.5947 138 38.1267 137.88 36.6953 137.65C31.9566 136.889 28.2031 133.135 27.442 128.396C27.2121 126.965 27.0918 125.497 27.0918 124C27.0918 122.503 27.2121 121.035 27.442 119.603C28.2031 114.865 31.9567 111.111 36.6953 110.35C38.1268 110.12 39.5947 110 41.0917 110C42.5888 110 44.0568 110.12 45.4882 110.35C50.2268 111.111 53.9803 114.865 54.7414 119.603C54.9713 121.035 55.0917 122.503 55.0917 124Z" fill="url(#paint3_radial_5085_23374)"/>
<g clip-path="url(#clip1_5085_23374)">
<path d="M42.0918 116H35.0918C33.9872 116 33.0918 116.895 33.0918 118V122C33.0918 123.105 33.9872 124 35.0918 124L35.0919 125.999C35.0919 126.444 35.6304 126.668 35.9454 126.353L37.8586 124.439C38.1399 124.158 38.5214 124 38.9192 124H42.0918C43.1964 124 44.0918 123.105 44.0918 122V118C44.0918 116.895 43.1964 116 42.0918 116ZM49.0918 123.5V127.5C49.0918 128.605 48.1964 129.5 47.0918 129.5L47.0917 131.499C47.0917 131.944 46.5532 132.168 46.2382 131.853L44.325 129.939C44.0437 129.658 43.6622 129.5 43.2644 129.5H40.0918C38.9872 129.5 38.0918 128.605 38.0918 127.5V126.059C38.0918 125.778 38.2034 125.509 38.402 125.31C38.6006 125.112 38.8699 125 39.1508 125H42.0918C43.7486 125 45.0918 123.657 45.0918 122V121.5H47.0918C48.1964 121.5 49.0918 122.395 49.0918 123.5Z" fill="white"/>
</g>
<path d="M55.0918 195C55.0918 196.497 54.9714 197.965 54.7415 199.397C53.9804 204.135 50.2269 207.889 45.4883 208.65C44.0568 208.88 42.5888 209 41.0918 209C39.5948 209 38.1268 208.88 36.6953 208.65C31.9567 207.889 28.2031 204.135 27.4421 199.397C27.2122 197.965 27.0918 196.497 27.0918 195C27.0918 193.503 27.2122 192.035 27.4421 190.603C28.2031 185.865 31.9567 182.111 36.6953 181.35C38.1268 181.12 39.5948 181 41.0918 181C42.5888 181 44.0568 181.12 45.4883 181.35C50.2269 182.111 53.9804 185.865 54.7415 190.603C54.9714 192.035 55.0918 193.503 55.0918 195Z" fill="#0B5CFF"/>
<path d="M55.0918 195C55.0918 196.497 54.9714 197.965 54.7415 199.397C53.9804 204.135 50.2269 207.889 45.4883 208.65C44.0568 208.88 42.5888 209 41.0918 209C39.5948 209 38.1268 208.88 36.6953 208.65C31.9567 207.889 28.2031 204.135 27.4421 199.397C27.2122 197.965 27.0918 196.497 27.0918 195C27.0918 193.503 27.2122 192.035 27.4421 190.603C28.2031 185.865 31.9567 182.111 36.6953 181.35C38.1268 181.12 39.5948 181 41.0918 181C42.5888 181 44.0568 181.12 45.4883 181.35C50.2269 182.111 53.9804 185.865 54.7415 190.603C54.9714 192.035 55.0918 193.503 55.0918 195Z" fill="url(#paint4_radial_5085_23374)"/>
<path d="M55.0917 195C55.0917 196.497 54.9713 197.965 54.7414 199.396C53.9803 204.135 50.2268 207.889 45.4882 208.65C44.0567 208.88 42.5888 209 41.0917 209C39.5947 209 38.1267 208.88 36.6953 208.65C31.9566 207.889 28.2031 204.135 27.442 199.396C27.2121 197.965 27.0918 196.497 27.0918 195C27.0918 193.503 27.2121 192.035 27.442 190.603C28.2031 185.865 31.9567 182.111 36.6953 181.35C38.1268 181.12 39.5947 181 41.0917 181C42.5888 181 44.0568 181.12 45.4882 181.35C50.2268 182.111 53.9803 185.865 54.7414 190.603C54.9713 192.035 55.0917 193.503 55.0917 195Z" fill="url(#paint5_radial_5085_23374)"/>
<g clip-path="url(#clip2_5085_23374)">
<path d="M48.0918 198.063V199.375C48.0918 200.818 46.9253 201.987 45.4828 201.998V202C45.4784 202 45.4741 201.999 45.4697 201.999C45.4674 201.999 45.4653 202 45.4631 202V201.999C39.1876 201.988 34.1021 196.911 34.0918 190.644C34.0894 189.191 35.2649 188 36.7205 188H38.0348C39.0026 188 39.7873 188.784 39.7873 189.75V190.775C39.7873 191.239 39.6026 191.684 39.2739 192.013L38.3545 192.931C38.1694 193.116 38.1037 193.396 38.204 193.638C39.0008 195.556 40.5323 197.088 42.4507 197.887C42.6928 197.988 42.9745 197.923 43.16 197.737L44.0735 196.825C44.4021 196.497 44.8478 196.313 45.3126 196.313H46.3393C47.3072 196.313 48.0918 197.096 48.0918 198.063Z" fill="white"/>
</g>
<path d="M55 267C55 268.497 54.8796 269.965 54.6497 271.397C53.8886 276.135 50.1351 279.889 45.3965 280.65C43.965 280.88 42.497 281 41 281C39.503 281 38.035 280.88 36.6035 280.65C31.8649 279.889 28.1114 276.135 27.3503 271.397C27.1204 269.965 27 268.497 27 267C27 265.503 27.1204 264.035 27.3503 262.603C28.1114 257.865 31.8649 254.111 36.6035 253.35C38.035 253.12 39.503 253 41 253C42.497 253 43.965 253.12 45.3965 253.35C50.1351 254.111 53.8886 257.865 54.6497 262.603C54.8796 264.035 55 265.503 55 267Z" fill="#0B5CFF"/>
<path d="M55 267C55 268.497 54.8796 269.965 54.6497 271.397C53.8886 276.135 50.1351 279.889 45.3965 280.65C43.965 280.88 42.497 281 41 281C39.503 281 38.035 280.88 36.6035 280.65C31.8649 279.889 28.1114 276.135 27.3503 271.397C27.1204 269.965 27 268.497 27 267C27 265.503 27.1204 264.035 27.3503 262.603C28.1114 257.865 31.8649 254.111 36.6035 253.35C38.035 253.12 39.503 253 41 253C42.497 253 43.965 253.12 45.3965 253.35C50.1351 254.111 53.8886 257.865 54.6497 262.603C54.8796 264.035 55 265.503 55 267Z" fill="url(#paint6_radial_5085_23374)"/>
<path d="M54.9999 267C54.9999 268.497 54.8795 269.965 54.6496 271.396C53.8885 276.135 50.135 279.889 45.3964 280.65C43.9649 280.88 42.497 281 40.9999 281C39.5029 281 38.0349 280.88 36.6035 280.65C31.8648 279.889 28.1113 276.135 27.3502 271.396C27.1203 269.965 27 268.497 27 267C27 265.503 27.1203 264.035 27.3502 262.603C28.1114 257.865 31.8649 254.111 36.6035 253.35C38.035 253.12 39.5029 253 40.9999 253C42.497 253 43.965 253.12 45.3964 253.35C50.135 254.111 53.8885 257.865 54.6496 262.603C54.8795 264.035 54.9999 265.503 54.9999 267Z" fill="url(#paint7_radial_5085_23374)"/>
<g clip-path="url(#clip3_5085_23374)">
<path d="M41.6506 271.211L40.4146 271.829C39.8618 272.105 39.8618 272.894 40.4146 273.171L41.6506 273.789C41.9283 273.928 42.2346 274 42.5451 274H48C48.5523 274 49 273.552 49 273V272C49 271.448 48.5523 271 48 271H42.545C42.2345 271 41.9283 271.072 41.6506 271.211ZM49 263V269.999H42.545C42.0818 269.999 41.6179 270.109 41.2036 270.316L39.9674 270.934C39.3708 271.232 39.0001 271.832 39 272.499V273H35C33.8955 273 33 272.105 33 271V263C33 261.895 33.8955 261 35 261H47C48.1046 261 49 261.895 49 263Z" fill="white"/>
</g>
<path d="M127.273 267C127.273 268.497 127.153 269.965 126.923 271.397C126.162 276.135 122.409 279.889 117.67 280.65C116.238 280.88 114.77 281 113.273 281C111.776 281 110.308 280.88 108.877 280.65C104.138 279.889 100.385 276.135 99.6237 271.397C99.3938 269.965 99.2734 268.497 99.2734 267C99.2734 265.503 99.3938 264.035 99.6237 262.603C100.385 257.865 104.138 254.111 108.877 253.35C110.308 253.12 111.776 253 113.273 253C114.77 253 116.238 253.12 117.67 253.35C122.409 254.111 126.162 257.865 126.923 262.603C127.153 264.035 127.273 265.503 127.273 267Z" fill="#0B5CFF"/>
<path d="M127.273 267C127.273 268.497 127.153 269.965 126.923 271.397C126.162 276.135 122.409 279.889 117.67 280.65C116.238 280.88 114.77 281 113.273 281C111.776 281 110.308 280.88 108.877 280.65C104.138 279.889 100.385 276.135 99.6237 271.397C99.3938 269.965 99.2734 268.497 99.2734 267C99.2734 265.503 99.3938 264.035 99.6237 262.603C100.385 257.865 104.138 254.111 108.877 253.35C110.308 253.12 111.776 253 113.273 253C114.77 253 116.238 253.12 117.67 253.35C122.409 254.111 126.162 257.865 126.923 262.603C127.153 264.035 127.273 265.503 127.273 267Z" fill="url(#paint8_radial_5085_23374)"/>
<path d="M127.273 267C127.273 268.497 127.153 269.965 126.923 271.396C126.162 276.135 122.408 279.889 117.67 280.65C116.238 280.88 114.77 281 113.273 281C111.776 281 110.308 280.88 108.877 280.65C104.138 279.889 100.385 276.135 99.6237 271.396C99.3938 269.965 99.2734 268.497 99.2734 267C99.2734 265.503 99.3938 264.035 99.6237 262.603C100.385 257.865 104.138 254.111 108.877 253.35C110.308 253.12 111.776 253 113.273 253C114.77 253 116.238 253.12 117.67 253.35C122.408 254.111 126.162 257.865 126.923 262.603C127.153 264.035 127.273 265.503 127.273 267Z" fill="url(#paint9_radial_5085_23374)"/>
<g clip-path="url(#clip4_5085_23374)">
<path d="M119.273 261H107.273C106.17 261 105.273 261.897 105.273 263V271C105.273 272.103 106.17 273 107.273 273H119.273C120.376 273 121.273 272.103 121.273 271V263C121.273 261.897 120.376 261 119.273 261ZM110.274 263.5H110.774C111.05 263.5 111.274 263.723 111.274 264C111.274 264.276 111.05 264.5 110.774 264.5H110.274C109.997 264.5 109.774 264.276 109.774 264C109.774 263.723 109.997 263.5 110.274 263.5ZM107.774 263.5H108.274C108.55 263.5 108.774 263.723 108.774 264C108.774 264.276 108.55 264.5 108.274 264.5H107.774C107.497 264.5 107.274 264.276 107.274 264C107.274 263.723 107.497 263.5 107.774 263.5ZM107.774 266.5H113.774C114.05 266.5 114.274 266.723 114.274 267C114.274 267.276 114.05 267.5 113.774 267.5H107.774C107.497 267.5 107.274 267.276 107.274 267C107.274 266.723 107.497 266.5 107.774 266.5ZM108.274 270.5H107.774C107.497 270.5 107.274 270.276 107.274 270C107.274 269.723 107.497 269.5 107.774 269.5H108.274C108.55 269.5 108.774 269.723 108.774 270C108.774 270.276 108.55 270.5 108.274 270.5ZM116.274 270.5H110.274C109.997 270.5 109.774 270.276 109.774 270C109.774 269.723 109.997 269.5 110.274 269.5H116.274C116.55 269.5 116.774 269.723 116.774 270C116.774 270.276 116.55 270.5 116.274 270.5ZM116.274 267.5H115.774C115.497 267.5 115.274 267.276 115.274 267C115.274 266.723 115.497 266.5 115.774 266.5H116.274C116.55 266.5 116.774 266.723 116.774 267C116.774 267.276 116.55 267.5 116.274 267.5ZM118.774 270.5H118.274C117.997 270.5 117.774 270.276 117.774 270C117.774 269.723 117.997 269.5 118.274 269.5H118.774C119.05 269.5 119.274 269.723 119.274 270C119.274 270.276 119.05 270.5 118.774 270.5ZM118.774 267.5H118.274C117.997 267.5 117.774 267.276 117.774 267C117.774 266.723 117.997 266.5 118.274 266.5H118.774C119.05 266.5 119.274 266.723 119.274 267C119.274 267.276 119.05 267.5 118.774 267.5ZM118.774 264.5H112.774C112.497 264.5 112.274 264.276 112.274 264C112.274 263.723 112.497 263.5 112.774 263.5H118.774C119.05 263.5 119.274 263.723 119.274 264C119.274 264.276 119.05 264.5 118.774 264.5Z" fill="white"/>
</g>
<path d="M55.0918 339C55.0918 340.497 54.9714 341.965 54.7415 343.397C53.9805 348.135 50.2269 351.889 45.4883 352.65C44.0568 352.88 42.5888 353 41.0918 353C39.5948 353 38.1268 352.88 36.6953 352.65C31.9567 351.889 28.2031 348.135 27.4421 343.397C27.2122 341.965 27.0918 340.497 27.0918 339C27.0918 337.503 27.2122 336.035 27.4421 334.603C28.2031 329.865 31.9567 326.111 36.6953 325.35C38.1268 325.12 39.5948 325 41.0918 325C42.5888 325 44.0568 325.12 45.4883 325.35C50.2269 326.111 53.9805 329.865 54.7415 334.603C54.9714 336.035 55.0918 337.503 55.0918 339Z" fill="#0B5CFF"/>
<path d="M55.0918 339C55.0918 340.497 54.9714 341.965 54.7415 343.397C53.9805 348.135 50.2269 351.889 45.4883 352.65C44.0568 352.88 42.5888 353 41.0918 353C39.5948 353 38.1268 352.88 36.6953 352.65C31.9567 351.889 28.2031 348.135 27.4421 343.397C27.2122 341.965 27.0918 340.497 27.0918 339C27.0918 337.503 27.2122 336.035 27.4421 334.603C28.2031 329.865 31.9567 326.111 36.6953 325.35C38.1268 325.12 39.5948 325 41.0918 325C42.5888 325 44.0568 325.12 45.4883 325.35C50.2269 326.111 53.9805 329.865 54.7415 334.603C54.9714 336.035 55.0918 337.503 55.0918 339Z" fill="url(#paint10_radial_5085_23374)"/>
<path d="M55.0917 339C55.0917 340.497 54.9713 341.965 54.7414 343.396C53.9803 348.135 50.2268 351.889 45.4882 352.65C44.0567 352.88 42.5888 353 41.0918 353C39.5947 353 38.1267 352.88 36.6953 352.65C31.9566 351.889 28.2031 348.135 27.442 343.396C27.2121 341.965 27.0918 340.497 27.0918 339C27.0918 337.503 27.2121 336.035 27.442 334.603C28.2032 329.865 31.9567 326.111 36.6953 325.35C38.1268 325.12 39.5947 325 41.0918 325C42.5888 325 44.0568 325.12 45.4882 325.35C50.2268 326.111 53.9804 329.865 54.7414 334.603C54.9713 336.035 55.0917 337.503 55.0917 339Z" fill="url(#paint11_radial_5085_23374)"/>
<g clip-path="url(#clip5_5085_23374)">
<path d="M49.0918 336.273V343C49.0918 344.105 48.1964 345 47.0918 345H35.0918C33.9872 345 33.0918 344.105 33.0918 343V336.273L38.9288 340.859C39.5655 341.36 40.3287 341.611 41.0919 341.611C41.8551 341.611 42.6183 341.36 43.255 340.86L49.0918 336.273ZM39.5469 340.073C40.4561 340.79 41.7276 340.789 42.6368 340.074L49.0918 335C49.0918 333.896 48.1964 333 47.0918 333H35.0918C33.9872 333 33.0918 333.895 33.0918 335L39.5469 340.073Z" fill="white"/>
</g>
<path d="M127.092 339C127.092 340.497 126.971 341.965 126.742 343.397C125.98 348.135 122.227 351.889 117.488 352.65C116.057 352.88 114.589 353 113.092 353C111.595 353 110.127 352.88 108.695 352.65C103.957 351.889 100.203 348.135 99.4421 343.397C99.2122 341.965 99.0918 340.497 99.0918 339C99.0918 337.503 99.2122 336.035 99.4421 334.603C100.203 329.865 103.957 326.111 108.695 325.35C110.127 325.12 111.595 325 113.092 325C114.589 325 116.057 325.12 117.488 325.35C122.227 326.111 125.98 329.865 126.742 334.603C126.971 336.035 127.092 337.503 127.092 339Z" fill="#0B5CFF"/>
<path d="M127.092 339C127.092 340.497 126.971 341.965 126.742 343.397C125.98 348.135 122.227 351.889 117.488 352.65C116.057 352.88 114.589 353 113.092 353C111.595 353 110.127 352.88 108.695 352.65C103.957 351.889 100.203 348.135 99.4421 343.397C99.2122 341.965 99.0918 340.497 99.0918 339C99.0918 337.503 99.2122 336.035 99.4421 334.603C100.203 329.865 103.957 326.111 108.695 325.35C110.127 325.12 111.595 325 113.092 325C114.589 325 116.057 325.12 117.488 325.35C122.227 326.111 125.98 329.865 126.742 334.603C126.971 336.035 127.092 337.503 127.092 339Z" fill="url(#paint12_radial_5085_23374)"/>
<path d="M127.092 339C127.092 340.497 126.971 341.965 126.741 343.396C125.98 348.135 122.227 351.889 117.488 352.65C116.057 352.88 114.589 353 113.092 353C111.595 353 110.127 352.88 108.695 352.65C103.957 351.889 100.203 348.135 99.442 343.396C99.2121 341.965 99.0918 340.497 99.0918 339C99.0918 337.503 99.2121 336.035 99.442 334.603C100.203 329.865 103.957 326.111 108.695 325.35C110.127 325.12 111.595 325 113.092 325C114.589 325 116.057 325.12 117.488 325.35C122.227 326.111 125.98 329.865 126.741 334.603C126.971 336.035 127.092 337.503 127.092 339Z" fill="url(#paint13_radial_5085_23374)"/>
<g clip-path="url(#clip6_5085_23374)">
<path d="M116.833 335.259C116.087 332.795 113.8 331 111.092 331C107.778 331 105.092 333.686 105.092 337C105.092 339.708 106.886 341.995 109.35 342.741C110.097 345.205 112.384 347 115.092 347C118.406 347 121.092 344.314 121.092 341C121.092 338.292 119.297 336.005 116.833 335.259ZM117.092 340.5C117.092 341.881 115.972 343 114.592 343H111.592C110.211 343 109.092 341.881 109.092 340.5V337.5C109.092 336.119 110.211 335 111.592 335H114.592C115.972 335 117.092 336.119 117.092 337.5V340.5ZM113.092 339C113.851 339 114.466 338.384 114.466 337.625C114.466 336.866 113.851 336.25 113.092 336.25C112.332 336.25 111.716 336.866 111.716 337.625C111.716 338.384 112.332 339 113.092 339ZM113.092 339.688C111.663 339.688 110.592 340.303 110.592 341.063C110.592 341.442 110.961 341.75 111.306 341.75H114.878C115.223 341.75 115.592 341.442 115.592 341.063C115.592 340.303 114.521 339.688 113.092 339.688Z" fill="white"/>
</g>
<path d="M199 123C199 124.497 198.88 125.965 198.65 127.397C197.889 132.135 194.135 135.889 189.396 136.65C187.965 136.88 186.497 137 185 137C183.503 137 182.035 136.88 180.604 136.65C175.865 135.889 172.111 132.135 171.35 127.397C171.12 125.965 171 124.497 171 123C171 121.503 171.12 120.035 171.35 118.603C172.111 113.865 175.865 110.111 180.604 109.35C182.035 109.12 183.503 109 185 109C186.497 109 187.965 109.12 189.396 109.35C194.135 110.111 197.889 113.865 198.65 118.603C198.88 120.035 199 121.503 199 123Z" fill="#0B5CFF"/>
<path d="M199 123C199 124.497 198.88 125.965 198.65 127.397C197.889 132.135 194.135 135.889 189.396 136.65C187.965 136.88 186.497 137 185 137C183.503 137 182.035 136.88 180.604 136.65C175.865 135.889 172.111 132.135 171.35 127.397C171.12 125.965 171 124.497 171 123C171 121.503 171.12 120.035 171.35 118.603C172.111 113.865 175.865 110.111 180.604 109.35C182.035 109.12 183.503 109 185 109C186.497 109 187.965 109.12 189.396 109.35C194.135 110.111 197.889 113.865 198.65 118.603C198.88 120.035 199 121.503 199 123Z" fill="url(#paint14_radial_5085_23374)"/>
<path d="M199 123C199 124.497 198.88 125.965 198.65 127.396C197.889 132.135 194.135 135.889 189.396 136.65C187.965 136.88 186.497 137 185 137C183.503 137 182.035 136.88 180.603 136.65C175.865 135.889 172.111 132.135 171.35 127.396C171.12 125.965 171 124.497 171 123C171 121.503 171.12 120.035 171.35 118.603C172.111 113.865 175.865 110.111 180.603 109.35C182.035 109.12 183.503 109 185 109C186.497 109 187.965 109.12 189.396 109.35C194.135 110.111 197.889 113.865 198.65 118.603C198.88 120.035 199 121.503 199 123Z" fill="url(#paint15_radial_5085_23374)"/>
<g clip-path="url(#clip7_5085_23374)">
<path d="M192.605 121.552C192.819 121.494 193 121.291 193 121.069V118.75C193 117.922 192.328 117.25 191.5 117.25H178.5C177.672 117.25 177 117.922 177 118.75V121.069C177 121.291 177.181 121.494 177.395 121.552C178.032 121.726 178.5 122.308 178.5 123C178.5 123.691 178.032 124.274 177.395 124.447C177.181 124.505 177 124.709 177 124.931V127.25C177 128.078 177.672 128.75 178.5 128.75H191.5C192.328 128.75 193 128.078 193 127.25V124.931C193 124.709 192.819 124.506 192.605 124.447C191.968 124.274 191.5 123.691 191.5 123C191.5 122.308 191.968 121.726 192.605 121.552ZM183.209 120C184.037 120 184.708 120.672 184.708 121.5C184.708 122.328 184.037 123 183.209 123C182.38 123 181.708 122.328 181.708 121.5C181.708 120.672 182.38 120 183.209 120ZM185.173 126H181.244C180.864 126 180.459 125.664 180.459 125.25C180.459 124.422 181.636 123.75 183.209 123.75C184.78 123.75 185.959 124.422 185.959 125.25C185.959 125.664 185.552 126 185.173 126ZM186 122.25C186 121.56 186.56 121 187.25 121C187.94 121 188.5 121.56 188.5 122.25C188.5 122.94 187.94 123.5 187.25 123.5C186.56 123.5 186 122.94 186 122.25ZM188.887 126H186.773C186.888 125.77 186.959 125.518 186.959 125.25C186.959 124.857 186.834 124.497 186.622 124.176C186.821 124.146 187.029 124.125 187.25 124.125C188.56 124.125 189.542 124.685 189.542 125.375C189.542 125.72 189.204 126 188.887 126Z" fill="white"/>
</g>
<path d="M127.092 51C127.092 52.4971 126.971 53.9651 126.742 55.3965C125.98 60.1351 122.227 63.8886 117.488 64.6497C116.057 64.8796 114.589 65 113.092 65C111.595 65 110.127 64.8796 108.695 64.6497C103.957 63.8886 100.203 60.1351 99.4421 55.3965C99.2122 53.9651 99.0918 52.4971 99.0918 51C99.0918 49.5029 99.2122 48.0349 99.4421 46.6035C100.203 41.8649 103.957 38.1114 108.695 37.3503C110.127 37.1204 111.595 37 113.092 37C114.589 37 116.057 37.1204 117.488 37.3503C122.227 38.1114 125.98 41.8649 126.742 46.6035C126.971 48.0349 127.092 49.5029 127.092 51Z" fill="#0B5CFF"/>
<path d="M127.092 51C127.092 52.4971 126.971 53.9651 126.742 55.3965C125.98 60.1351 122.227 63.8886 117.488 64.6497C116.057 64.8796 114.589 65 113.092 65C111.595 65 110.127 64.8796 108.695 64.6497C103.957 63.8886 100.203 60.1351 99.4421 55.3965C99.2122 53.9651 99.0918 52.4971 99.0918 51C99.0918 49.5029 99.2122 48.0349 99.4421 46.6035C100.203 41.8649 103.957 38.1114 108.695 37.3503C110.127 37.1204 111.595 37 113.092 37C114.589 37 116.057 37.1204 117.488 37.3503C122.227 38.1114 125.98 41.8649 126.742 46.6035C126.971 48.0349 127.092 49.5029 127.092 51Z" fill="url(#paint16_radial_5085_23374)"/>
<path d="M127.092 51C127.092 52.4971 126.971 53.9651 126.741 55.3965C125.98 60.1351 122.227 63.8887 117.488 64.6497C116.057 64.8796 114.589 65 113.092 65C111.595 65 110.127 64.8796 108.695 64.6497C103.957 63.8887 100.203 60.1351 99.442 55.3965C99.2121 53.9651 99.0918 52.4971 99.0918 51C99.0918 49.503 99.2121 48.0349 99.442 46.6034C100.203 41.8649 103.957 38.1113 108.695 37.3502C110.127 37.1203 111.595 37 113.092 37C114.589 37 116.057 37.1203 117.488 37.3502C122.227 38.1113 125.98 41.8649 126.741 46.6034C126.971 48.0349 127.092 49.5029 127.092 51Z" fill="url(#paint17_radial_5085_23374)"/>
<g clip-path="url(#clip8_5085_23374)">
<path d="M119.603 54.3295L120.491 57.8789C120.559 58.1465 120.395 58.418 120.127 58.4854C120.087 58.4951 120.046 58.5 120.006 58.5C119.782 58.5 119.578 58.3486 119.521 58.1211L118.616 54.4999H116.592C116.041 54.4999 115.592 54.9482 115.592 55.5V58C115.592 58.2764 115.368 58.5 115.092 58.5C114.815 58.5 114.592 58.2764 114.592 58V55.5C114.592 54.3974 115.489 53.4999 116.592 53.4999H119.006C119.121 53.4999 119.221 53.4228 119.248 53.3115L120.107 49.8788C120.173 49.6102 120.446 49.4481 120.713 49.5145C120.981 49.5819 121.144 49.8534 121.077 50.121L120.218 53.5537C120.132 53.8996 119.899 54.1662 119.603 54.3295ZM111.592 55.5V58C111.592 58.2764 111.368 58.5 111.092 58.5C110.815 58.5 110.592 58.2764 110.592 58V55.5C110.592 54.9482 110.143 54.4999 109.592 54.4999H107.568L106.662 58.1211C106.606 58.3486 106.402 58.5 106.178 58.5C106.138 58.5 106.097 58.4951 106.056 58.4853C105.788 58.418 105.625 58.1465 105.692 57.8789L106.58 54.3295C106.285 54.1659 106.052 53.8996 105.965 53.5536L105.107 50.121C105.04 49.8534 105.203 49.5819 105.471 49.5145C105.737 49.4491 106.01 49.6102 106.077 49.8788L106.935 53.3114C106.963 53.4228 107.063 53.4999 107.178 53.4999H109.592C110.695 53.4999 111.592 54.3974 111.592 55.5ZM117.092 43.5H109.092C107.989 43.5 107.092 44.3975 107.092 45.5V49.5C107.092 50.6025 107.989 51.5 109.092 51.5H117.092C118.194 51.5 119.092 50.6025 119.092 49.5V45.5C119.092 44.3975 118.194 43.5 117.092 43.5ZM113.092 44.7502C113.851 44.7502 114.466 45.3659 114.466 46.1251C114.466 46.8846 113.851 47.5002 113.092 47.5002C112.332 47.5002 111.716 46.8846 111.716 46.1251C111.716 45.3659 112.332 44.7502 113.092 44.7502ZM114.878 50.2502H111.306C110.961 50.2502 110.592 49.9424 110.592 49.5627C110.592 48.8034 111.663 48.1877 113.092 48.1877C114.521 48.1877 115.592 48.8034 115.592 49.5627C115.592 49.9424 115.223 50.2502 114.878 50.2502Z" fill="white"/>
</g>
<path d="M127 123C127 124.497 126.88 125.965 126.65 127.397C125.889 132.135 122.135 135.889 117.396 136.65C115.965 136.88 114.497 137 113 137C111.503 137 110.035 136.88 108.604 136.65C103.865 135.889 100.111 132.135 99.3503 127.397C99.1204 125.965 99 124.497 99 123C99 121.503 99.1204 120.035 99.3503 118.603C100.111 113.865 103.865 110.111 108.604 109.35C110.035 109.12 111.503 109 113 109C114.497 109 115.965 109.12 117.396 109.35C122.135 110.111 125.889 113.865 126.65 118.603C126.88 120.035 127 121.503 127 123Z" fill="#0B5CFF"/>
<path d="M127 123C127 124.497 126.88 125.965 126.65 127.397C125.889 132.135 122.135 135.889 117.396 136.65C115.965 136.88 114.497 137 113 137C111.503 137 110.035 136.88 108.604 136.65C103.865 135.889 100.111 132.135 99.3503 127.397C99.1204 125.965 99 124.497 99 123C99 121.503 99.1204 120.035 99.3503 118.603C100.111 113.865 103.865 110.111 108.604 109.35C110.035 109.12 111.503 109 113 109C114.497 109 115.965 109.12 117.396 109.35C122.135 110.111 125.889 113.865 126.65 118.603C126.88 120.035 127 121.503 127 123Z" fill="url(#paint18_radial_5085_23374)"/>
<path d="M127 123C127 124.497 126.88 125.965 126.65 127.396C125.889 132.135 122.135 135.889 117.396 136.65C115.965 136.88 114.497 137 113 137C111.503 137 110.035 136.88 108.603 136.65C103.865 135.889 100.111 132.135 99.3502 127.396C99.1203 125.965 99 124.497 99 123C99 121.503 99.1203 120.035 99.3502 118.603C100.111 113.865 103.865 110.111 108.603 109.35C110.035 109.12 111.503 109 113 109C114.497 109 115.965 109.12 117.396 109.35C122.135 110.111 125.889 113.865 126.65 118.603C126.88 120.035 127 121.503 127 123Z" fill="url(#paint19_radial_5085_23374)"/>
<g clip-path="url(#clip9_5085_23374)">
<path d="M119.5 115C118.849 115 118.294 115.418 118.088 115.999H114C113.173 115.999 112.5 116.672 112.5 117.499V119H109C107.895 119 107 119.895 107 121V125C107 126.105 107.895 127 109 127H112.5V128.5C112.5 128.776 112.276 129 112 129H107.913C107.706 128.418 107.152 128 106.5 128C105.673 128 105 128.673 105 129.5C105 130.327 105.673 131 106.5 131C107.152 131 107.706 130.582 107.913 130H112C112.827 130 113.5 129.327 113.5 128.5V127H117C118.105 127 119 126.105 119 125V121C119 119.895 118.105 119 117 119H113.5V117.499C113.5 117.224 113.724 116.999 114 116.999H118.087C118.294 117.581 118.848 118 119.5 118C120.327 118 121 117.327 121 116.5C121 115.673 120.327 115 119.5 115ZM106.5 130C106.224 130 106 129.776 106 129.5C106 129.224 106.224 129 106.5 129C106.776 129 107 129.224 107 129.5C107 129.776 106.776 130 106.5 130ZM119.5 117C119.224 117 119 116.776 119 116.5C119 116.224 119.224 116 119.5 116C119.776 116 120 116.224 120 116.5C120 116.776 119.776 117 119.5 117ZM113 120.251C113.759 120.251 114.374 120.867 114.374 121.626C114.374 122.386 113.759 123.001 113 123.001C112.24 123.001 111.624 122.386 111.624 121.626C111.624 120.867 112.24 120.251 113 120.251ZM114.786 125.751H111.214C110.869 125.751 110.5 125.443 110.5 125.064C110.5 124.304 111.571 123.689 113 123.689C114.429 123.689 115.5 124.304 115.5 125.064C115.5 125.443 115.131 125.751 114.786 125.751Z" fill="white"/>
</g>
<path d="M127 195C127 196.497 126.88 197.965 126.65 199.397C125.889 204.135 122.135 207.889 117.396 208.65C115.965 208.88 114.497 209 113 209C111.503 209 110.035 208.88 108.604 208.65C103.865 207.889 100.111 204.135 99.3503 199.397C99.1204 197.965 99 196.497 99 195C99 193.503 99.1204 192.035 99.3503 190.603C100.111 185.865 103.865 182.111 108.604 181.35C110.035 181.12 111.503 181 113 181C114.497 181 115.965 181.12 117.396 181.35C122.135 182.111 125.889 185.865 126.65 190.603C126.88 192.035 127 193.503 127 195Z" fill="#0B5CFF"/>
<path d="M127 195C127 196.497 126.88 197.965 126.65 199.397C125.889 204.135 122.135 207.889 117.396 208.65C115.965 208.88 114.497 209 113 209C111.503 209 110.035 208.88 108.604 208.65C103.865 207.889 100.111 204.135 99.3503 199.397C99.1204 197.965 99 196.497 99 195C99 193.503 99.1204 192.035 99.3503 190.603C100.111 185.865 103.865 182.111 108.604 181.35C110.035 181.12 111.503 181 113 181C114.497 181 115.965 181.12 117.396 181.35C122.135 182.111 125.889 185.865 126.65 190.603C126.88 192.035 127 193.503 127 195Z" fill="url(#paint20_radial_5085_23374)"/>
<path d="M127 195C127 196.497 126.88 197.965 126.65 199.396C125.889 204.135 122.135 207.889 117.396 208.65C115.965 208.88 114.497 209 113 209C111.503 209 110.035 208.88 108.603 208.65C103.865 207.889 100.111 204.135 99.3502 199.396C99.1203 197.965 99 196.497 99 195C99 193.503 99.1203 192.035 99.3502 190.603C100.111 185.865 103.865 182.111 108.603 181.35C110.035 181.12 111.503 181 113 181C114.497 181 115.965 181.12 117.396 181.35C122.135 182.111 125.889 185.865 126.65 190.603C126.88 192.035 127 193.503 127 195Z" fill="url(#paint21_radial_5085_23374)"/>
<g clip-path="url(#clip10_5085_23374)">
<path d="M121 194.997V197.997C121 197.996 121 197.997 121 197.997L121 197.999C121 198.551 120.552 198.999 120 198.999H114.5C113.948 198.999 113.5 198.551 113.5 197.999V194.999C113.5 194.999 113.5 194.999 113.5 194.999L113.5 194.997C113.5 194.443 113.947 193.997 114.5 193.997H120C120.553 193.997 121 194.443 121 194.997ZM111.889 194.078C111.77 194.027 111.638 193.999 111.5 193.999H106C105.724 193.999 105.474 194.111 105.293 194.292C105.278 194.307 105.272 194.328 105.258 194.344C105.102 194.52 105 194.746 105 194.999V197.999C105 198.137 105.028 198.268 105.079 198.388C105.23 198.747 105.586 199 106 199H106.524C106.8 199 107.024 198.776 107.024 198.5C107.024 198.431 107.01 198.365 106.984 198.305C106.909 198.125 106.731 197.999 106.523 197.999H106V195H111.5V197.629C111.5 197.698 111.514 197.764 111.539 197.824C111.615 198.004 111.792 198.13 112 198.13C112.277 198.13 112.5 197.907 112.5 197.63V195C112.5 194.585 112.249 194.23 111.889 194.078ZM111.5 188H106C105.463 188 105.034 188.424 105.01 188.955C105.009 188.971 105 188.984 105 189V192C105 192.015 105.008 192.027 105.009 192.042C105.032 192.575 105.462 193 106 193H111.5C112.054 193 112.5 192.553 112.5 192V189C112.5 188.447 112.054 188 111.5 188ZM120 188H114.5C113.963 188 113.534 188.424 113.509 188.955C113.509 188.971 113.5 188.984 113.5 189V192C113.5 192.015 113.508 192.027 113.509 192.042C113.532 192.575 113.962 193 114.5 193H120C120.553 193 121 192.553 121 192V189C121 188.447 120.553 188 120 188ZM111.94 198.957C111.941 198.957 111.941 198.957 111.942 198.957C111.942 198.957 111.943 198.957 111.943 198.957H111.94ZM111.942 198.957C111.633 198.958 111.383 199.207 111.383 199.517V198.957C111.383 198.647 111.133 198.397 110.824 198.397C110.514 198.397 110.264 198.647 110.264 198.957V198.677C110.264 198.367 110.014 198.117 109.703 198.117C109.393 198.117 109.143 198.367 109.143 198.677V196.713C109.143 196.403 108.893 196.154 108.584 196.154C108.274 196.154 108.024 196.403 108.024 196.713V199.933C108.024 200.107 107.927 200.25 107.77 200.33C107.61 200.41 107.437 200.377 107.31 200.267C106.787 199.807 106.357 199.537 106.087 199.503C105.787 199.47 105.5 199.613 105.5 199.933C105.5 200.043 105.547 200.14 105.644 200.237C105.88 200.427 106.074 200.603 106.23 200.76C106.69 201.207 107.104 201.73 107.5 202.38C108.12 203.397 109.2 204 110.39 204C111.557 204 112.5 203.053 112.5 201.89V199.517C112.5 199.207 112.251 198.958 111.942 198.957Z" fill="white"/>
</g>
<path d="M199.092 51C199.092 52.4971 198.971 53.9651 198.742 55.3965C197.98 60.1351 194.227 63.8886 189.488 64.6497C188.057 64.8796 186.589 65 185.092 65C183.595 65 182.127 64.8796 180.695 64.6497C175.957 63.8886 172.203 60.1351 171.442 55.3965C171.212 53.9651 171.092 52.4971 171.092 51C171.092 49.5029 171.212 48.0349 171.442 46.6035C172.203 41.8649 175.957 38.1114 180.695 37.3503C182.127 37.1204 183.595 37 185.092 37C186.589 37 188.057 37.1204 189.488 37.3503C194.227 38.1114 197.98 41.8649 198.742 46.6035C198.971 48.0349 199.092 49.5029 199.092 51Z" fill="#0B5CFF"/>
<path d="M199.092 51C199.092 52.4971 198.971 53.9651 198.742 55.3965C197.98 60.1351 194.227 63.8886 189.488 64.6497C188.057 64.8796 186.589 65 185.092 65C183.595 65 182.127 64.8796 180.695 64.6497C175.957 63.8886 172.203 60.1351 171.442 55.3965C171.212 53.9651 171.092 52.4971 171.092 51C171.092 49.5029 171.212 48.0349 171.442 46.6035C172.203 41.8649 175.957 38.1114 180.695 37.3503C182.127 37.1204 183.595 37 185.092 37C186.589 37 188.057 37.1204 189.488 37.3503C194.227 38.1114 197.98 41.8649 198.742 46.6035C198.971 48.0349 199.092 49.5029 199.092 51Z" fill="url(#paint22_radial_5085_23374)"/>
<path d="M199.092 51C199.092 52.4971 198.971 53.9651 198.741 55.3965C197.98 60.1351 194.227 63.8887 189.488 64.6497C188.057 64.8796 186.589 65 185.092 65C183.595 65 182.127 64.8796 180.695 64.6497C175.957 63.8887 172.203 60.1351 171.442 55.3965C171.212 53.9651 171.092 52.4971 171.092 51C171.092 49.503 171.212 48.0349 171.442 46.6034C172.203 41.8649 175.957 38.1113 180.695 37.3502C182.127 37.1203 183.595 37 185.092 37C186.589 37 188.057 37.1203 189.488 37.3502C194.227 38.1113 197.98 41.8649 198.741 46.6034C198.971 48.0349 199.092 49.5029 199.092 51Z" fill="url(#paint23_radial_5085_23374)"/>
<g clip-path="url(#clip11_5085_23374)">
<path fill-rule="evenodd" clip-rule="evenodd" d="M192.697 49.5524C192.911 49.4941 193.092 49.2904 193.092 49.0686V46.75C193.092 45.9216 192.42 45.25 191.592 45.25H189.592V47C189.592 47.2761 189.368 47.5 189.092 47.5C188.816 47.5 188.592 47.2761 188.592 47V45.25H178.592C177.763 45.25 177.092 45.9216 177.092 46.75V49.0686C177.092 49.2904 177.273 49.4941 177.487 49.5524C178.124 49.7257 178.592 50.3082 178.592 50.9998C178.592 51.6913 178.124 52.2737 177.487 52.4471C177.273 52.5054 177.092 52.7091 177.092 52.9308V55.25C177.092 56.0784 177.763 56.75 178.592 56.75H188.592V55C188.592 54.7239 188.816 54.5 189.092 54.5C189.368 54.5 189.592 54.7239 189.592 55V56.75H191.592C192.42 56.75 193.092 56.0784 193.092 55.25V52.9308C193.092 52.7091 192.911 52.5055 192.697 52.4472C192.06 52.2737 191.592 51.6913 191.592 50.9998C191.592 50.3082 192.06 49.7257 192.697 49.5524ZM186.446 50.7686L185.622 51.5713C185.504 51.6863 185.451 51.8518 185.479 52.0139L185.673 53.1476C185.729 53.4744 185.386 53.7236 185.093 53.5693L184.074 53.0339C183.929 52.9575 183.755 52.9575 183.609 53.0339L182.591 53.5693C182.298 53.7236 181.955 53.4744 182.011 53.1476L182.205 52.0139C182.233 51.8518 182.179 51.6863 182.061 51.5713L181.238 50.7686C181 50.5371 181.131 50.1338 181.459 50.0862L182.598 49.9208C182.76 49.8972 182.901 49.7949 182.974 49.6472L183.483 48.6157C183.63 48.3186 184.054 48.3186 184.201 48.6157L184.71 49.6472C184.782 49.7949 184.923 49.8972 185.086 49.9208L186.224 50.0862C186.552 50.1338 186.683 50.5371 186.446 50.7686ZM189.592 52.4998C189.592 52.7759 189.368 53 189.092 53C188.816 53 188.592 52.7761 188.592 52.5V49.4998C188.592 49.2236 188.816 48.9998 189.092 48.9998C189.368 48.9998 189.592 49.2236 189.592 49.4998V52.4998Z" fill="white"/>
</g>
<path d="M199 267C199 268.497 198.88 269.965 198.65 271.397C197.889 276.135 194.135 279.889 189.396 280.65C187.965 280.88 186.497 281 185 281C183.503 281 182.035 280.88 180.604 280.65C175.865 279.889 172.111 276.135 171.35 271.397C171.12 269.965 171 268.497 171 267C171 265.503 171.12 264.035 171.35 262.603C172.111 257.865 175.865 254.111 180.604 253.35C182.035 253.12 183.503 253 185 253C186.497 253 187.965 253.12 189.396 253.35C194.135 254.111 197.889 257.865 198.65 262.603C198.88 264.035 199 265.503 199 267Z" fill="#0B5CFF"/>
<path d="M199 267C199 268.497 198.88 269.965 198.65 271.397C197.889 276.135 194.135 279.889 189.396 280.65C187.965 280.88 186.497 281 185 281C183.503 281 182.035 280.88 180.604 280.65C175.865 279.889 172.111 276.135 171.35 271.397C171.12 269.965 171 268.497 171 267C171 265.503 171.12 264.035 171.35 262.603C172.111 257.865 175.865 254.111 180.604 253.35C182.035 253.12 183.503 253 185 253C186.497 253 187.965 253.12 189.396 253.35C194.135 254.111 197.889 257.865 198.65 262.603C198.88 264.035 199 265.503 199 267Z" fill="url(#paint24_radial_5085_23374)"/>
<path d="M199 267C199 268.497 198.88 269.965 198.65 271.396C197.889 276.135 194.135 279.889 189.396 280.65C187.965 280.88 186.497 281 185 281C183.503 281 182.035 280.88 180.603 280.65C175.865 279.889 172.111 276.135 171.35 271.396C171.12 269.965 171 268.497 171 267C171 265.503 171.12 264.035 171.35 262.603C172.111 257.865 175.865 254.111 180.603 253.35C182.035 253.12 183.503 253 185 253C186.497 253 187.965 253.12 189.396 253.35C194.135 254.111 197.889 257.865 198.65 262.603C198.88 264.035 199 265.503 199 267Z" fill="url(#paint25_radial_5085_23374)"/>
<g clip-path="url(#clip12_5085_23374)">
<path d="M189.5 260H189.25V262C189.25 262.828 188.578 263.5 187.75 263.5C186.922 263.5 186.25 262.828 186.25 262V260H183.75V262C183.75 262.828 183.078 263.5 182.25 263.5C181.422 263.5 180.75 262.828 180.75 262V260H180.5C178.843 260 177.5 261.343 177.5 263V271C177.5 272.657 178.843 274 180.5 274H189.5C191.157 274 192.5 272.657 192.5 271V263C192.5 261.343 191.157 260 189.5 260ZM191.5 271C191.5 272.105 190.604 273 189.5 273H180.5C179.396 273 178.5 272.105 178.5 271V266.5C178.5 265.396 179.396 264.5 180.5 264.5H189.5C190.604 264.5 191.5 265.396 191.5 266.5V271ZM187.604 268.514L186.781 269.317C186.663 269.432 186.609 269.597 186.637 269.759L186.831 270.893C186.887 271.22 186.544 271.469 186.251 271.315L185.233 270.779C185.087 270.703 184.913 270.703 184.767 270.779L183.749 271.315C183.456 271.469 183.113 271.22 183.169 270.893L183.363 269.759C183.391 269.597 183.337 269.432 183.219 269.317L182.396 268.514C182.158 268.283 182.289 267.879 182.618 267.832L183.756 267.666C183.919 267.643 184.059 267.541 184.132 267.393L184.641 266.361C184.788 266.064 185.212 266.064 185.359 266.361L185.868 267.393C185.941 267.541 186.081 267.643 186.244 267.666L187.383 267.832C187.711 267.879 187.842 268.283 187.604 268.514ZM187.75 262.5C187.474 262.5 187.25 262.276 187.25 262V259C187.25 258.724 187.474 258.5 187.75 258.5C188.026 258.5 188.25 258.724 188.25 259V262C188.25 262.276 188.026 262.5 187.75 262.5ZM182.25 262.5C181.974 262.5 181.75 262.276 181.75 262V259C181.75 258.724 181.974 258.5 182.25 258.5C182.526 258.5 182.75 258.724 182.75 259V262C182.75 262.276 182.526 262.5 182.25 262.5Z" fill="white"/>
</g>
<path d="M271.092 51C271.092 52.4971 270.971 53.9651 270.742 55.3965C269.98 60.1351 266.227 63.8886 261.488 64.6497C260.057 64.8796 258.589 65 257.092 65C255.595 65 254.127 64.8796 252.695 64.6497C247.957 63.8886 244.203 60.1351 243.442 55.3965C243.212 53.9651 243.092 52.4971 243.092 51C243.092 49.5029 243.212 48.0349 243.442 46.6035C244.203 41.8649 247.957 38.1114 252.695 37.3503C254.127 37.1204 255.595 37 257.092 37C258.589 37 260.057 37.1204 261.488 37.3503C266.227 38.1114 269.98 41.8649 270.742 46.6035C270.971 48.0349 271.092 49.5029 271.092 51Z" fill="#0B5CFF"/>
<path d="M271.092 51C271.092 52.4971 270.971 53.9651 270.742 55.3965C269.98 60.1351 266.227 63.8886 261.488 64.6497C260.057 64.8796 258.589 65 257.092 65C255.595 65 254.127 64.8796 252.695 64.6497C247.957 63.8886 244.203 60.1351 243.442 55.3965C243.212 53.9651 243.092 52.4971 243.092 51C243.092 49.5029 243.212 48.0349 243.442 46.6035C244.203 41.8649 247.957 38.1114 252.695 37.3503C254.127 37.1204 255.595 37 257.092 37C258.589 37 260.057 37.1204 261.488 37.3503C266.227 38.1114 269.98 41.8649 270.742 46.6035C270.971 48.0349 271.092 49.5029 271.092 51Z" fill="url(#paint26_radial_5085_23374)"/>
<path d="M271.092 51C271.092 52.4971 270.971 53.9651 270.741 55.3965C269.98 60.1351 266.227 63.8887 261.488 64.6497C260.057 64.8796 258.589 65 257.092 65C255.595 65 254.127 64.8796 252.695 64.6497C247.957 63.8887 244.203 60.1351 243.442 55.3965C243.212 53.9651 243.092 52.4971 243.092 51C243.092 49.503 243.212 48.0349 243.442 46.6034C244.203 41.8649 247.957 38.1113 252.695 37.3502C254.127 37.1203 255.595 37 257.092 37C258.589 37 260.057 37.1203 261.488 37.3502C266.227 38.1113 269.98 41.8649 270.741 46.6034C270.971 48.0349 271.092 49.5029 271.092 51Z" fill="url(#paint27_radial_5085_23374)"/>
<g clip-path="url(#clip13_5085_23374)">
<path d="M265.092 50.4998C265.092 49.2057 264.1 48.151 262.839 48.0248C262.099 45.989 259.804 44.5 257.092 44.5C254.385 44.5 252.091 45.9824 251.347 48.0116C250.083 48.1356 249.092 49.204 249.092 50.4998C249.092 51.8787 250.213 52.9998 251.592 52.9998C251.868 52.9998 252.092 52.7761 252.092 52.4998L252.092 49.4354C252.092 47.2655 254.335 45.5 257.092 45.5C259.849 45.5 262.092 47.2655 262.092 49.4354V52.4998C262.092 54.0918 260.709 55.424 258.835 55.8468C258.652 55.6381 258.391 55.5001 258.092 55.5001H257.092C256.54 55.5001 256.092 55.9477 256.092 56.5C256.092 57.0523 256.54 57.5 257.092 57.5H258.092C258.524 57.5 258.883 57.223 259.023 56.8397C261.191 56.3605 262.834 54.8265 263.064 52.9521C264.217 52.7305 265.092 51.7171 265.092 50.4998ZM258.092 53.5C259.749 53.5 261.092 52.157 261.092 50.5001C261.092 48.8434 259.749 47.5002 258.092 47.5002H256.092C254.435 47.5002 253.092 48.8434 253.092 50.5001C253.092 51.3851 253.482 52.1724 254.092 52.7214V54.4989C254.092 54.9444 254.63 55.1675 254.945 54.8526L256.298 53.5H258.092Z" fill="white"/>
</g>
<path d="M271 123C271 124.497 270.88 125.965 270.65 127.397C269.889 132.135 266.135 135.889 261.396 136.65C259.965 136.88 258.497 137 257 137C255.503 137 254.035 136.88 252.604 136.65C247.865 135.889 244.111 132.135 243.35 127.397C243.12 125.965 243 124.497 243 123C243 121.503 243.12 120.035 243.35 118.603C244.111 113.865 247.865 110.111 252.604 109.35C254.035 109.12 255.503 109 257 109C258.497 109 259.965 109.12 261.396 109.35C266.135 110.111 269.889 113.865 270.65 118.603C270.88 120.035 271 121.503 271 123Z" fill="#0B5CFF"/>
<path d="M271 123C271 124.497 270.88 125.965 270.65 127.397C269.889 132.135 266.135 135.889 261.396 136.65C259.965 136.88 258.497 137 257 137C255.503 137 254.035 136.88 252.604 136.65C247.865 135.889 244.111 132.135 243.35 127.397C243.12 125.965 243 124.497 243 123C243 121.503 243.12 120.035 243.35 118.603C244.111 113.865 247.865 110.111 252.604 109.35C254.035 109.12 255.503 109 257 109C258.497 109 259.965 109.12 261.396 109.35C266.135 110.111 269.889 113.865 270.65 118.603C270.88 120.035 271 121.503 271 123Z" fill="url(#paint28_radial_5085_23374)"/>
<path d="M271 123C271 124.497 270.88 125.965 270.65 127.396C269.889 132.135 266.135 135.889 261.396 136.65C259.965 136.88 258.497 137 257 137C255.503 137 254.035 136.88 252.603 136.65C247.865 135.889 244.111 132.135 243.35 127.396C243.12 125.965 243 124.497 243 123C243 121.503 243.12 120.035 243.35 118.603C244.111 113.865 247.865 110.111 252.603 109.35C254.035 109.12 255.503 109 257 109C258.497 109 259.965 109.12 261.396 109.35C266.135 110.111 269.889 113.865 270.65 118.603C270.88 120.035 271 121.503 271 123Z" fill="url(#paint29_radial_5085_23374)"/>
<g clip-path="url(#clip14_5085_23374)">
<path d="M264 122.5C264 118.634 260.866 115.5 257 115.5C253.134 115.5 250 118.634 250 122.5C250 126.366 253.134 129.5 257 129.5L257 130.993C257 131.332 257.334 131.585 257.653 131.473C261.345 130.174 263.994 126.646 263.999 122.512C263.999 122.508 264 122.504 264 122.5ZM257.001 126.5C255.656 126.5 254.491 125.729 253.924 124.605C253.697 124.155 254.203 123.695 254.635 123.956C255.326 124.372 256.135 124.611 257.001 124.611C257.866 124.611 258.675 124.372 259.366 123.956C259.798 123.695 260.304 124.155 260.077 124.605C259.51 125.729 258.345 126.5 257.001 126.5Z" fill="white"/>
</g>
<path d="M199 195C199 196.497 198.88 197.965 198.65 199.397C197.889 204.135 194.135 207.889 189.396 208.65C187.965 208.88 186.497 209 185 209C183.503 209 182.035 208.88 180.604 208.65C175.865 207.889 172.111 204.135 171.35 199.397C171.12 197.965 171 196.497 171 195C171 193.503 171.12 192.035 171.35 190.603C172.111 185.865 175.865 182.111 180.604 181.35C182.035 181.12 183.503 181 185 181C186.497 181 187.965 181.12 189.396 181.35C194.135 182.111 197.889 185.865 198.65 190.603C198.88 192.035 199 193.503 199 195Z" fill="#0B5CFF"/>
<path d="M199 195C199 196.497 198.88 197.965 198.65 199.397C197.889 204.135 194.135 207.889 189.396 208.65C187.965 208.88 186.497 209 185 209C183.503 209 182.035 208.88 180.604 208.65C175.865 207.889 172.111 204.135 171.35 199.397C171.12 197.965 171 196.497 171 195C171 193.503 171.12 192.035 171.35 190.603C172.111 185.865 175.865 182.111 180.604 181.35C182.035 181.12 183.503 181 185 181C186.497 181 187.965 181.12 189.396 181.35C194.135 182.111 197.889 185.865 198.65 190.603C198.88 192.035 199 193.503 199 195Z" fill="url(#paint30_radial_5085_23374)"/>
<path d="M199 195C199 196.497 198.88 197.965 198.65 199.396C197.889 204.135 194.135 207.889 189.396 208.65C187.965 208.88 186.497 209 185 209C183.503 209 182.035 208.88 180.603 208.65C175.865 207.889 172.111 204.135 171.35 199.396C171.12 197.965 171 196.497 171 195C171 193.503 171.12 192.035 171.35 190.603C172.111 185.865 175.865 182.111 180.603 181.35C182.035 181.12 183.503 181 185 181C186.497 181 187.965 181.12 189.396 181.35C194.135 182.111 197.889 185.865 198.65 190.603C198.88 192.035 199 193.503 199 195Z" fill="url(#paint31_radial_5085_23374)"/>
<g clip-path="url(#clip15_5085_23374)">
<path fill-rule="evenodd" clip-rule="evenodd" d="M191 188H179C177.895 188 177 188.895 177 190V200C177 201.104 177.895 202 179 202H191C192.105 202 193 201.104 193 200V190C193 188.895 192.105 188 191 188ZM183.5 190.75C183.5 190.336 183.836 190 184.25 190H185.75C186.164 190 186.5 190.336 186.5 190.75V191.25C186.5 191.664 186.164 192 185.75 192H184.25C183.836 192 183.5 191.664 183.5 191.25V190.75ZM179 190.75C179 190.336 179.336 190 179.75 190H181.25C181.664 190 182 190.336 182 190.75V191.25C182 191.664 181.664 192 181.25 192H179.75C179.336 192 179 191.664 179 191.25V190.75ZM191 199.25C191 199.664 190.664 200 190.25 200H179.75C179.336 200 179 199.664 179 199.25V193.75C179 193.336 179.336 193 179.75 193H190.25C190.664 193 191 193.336 191 193.75V199.25ZM191 191.25C191 191.664 190.664 192 190.25 192H188.75C188.336 192 188 191.664 188 191.25V190.75C188 190.336 188.336 190 188.75 190H190.25C190.664 190 191 190.336 191 190.75V191.25Z" fill="white"/>
</g>
<defs>
<radialGradient id="paint0_radial_5085_23374" cx="0" cy="0" r="1" gradientUnits="userSpaceOnUse" gradientTransform="translate(41.0918 49.3731) scale(18.8757 15.7759)">
<stop offset="0.82" stop-color="#0B5CFF" stop-opacity="0"/>
<stop offset="0.98" stop-color="#003CB3"/>
</radialGradient>
<radialGradient id="paint1_radial_5085_23374" cx="0" cy="0" r="1" gradientUnits="userSpaceOnUse" gradientTransform="translate(41.0917 52.6211) scale(18.8689 15.7702)">
<stop offset="0.8" stop-color="#0B5CFF" stop-opacity="0"/>
<stop offset="1" stop-color="#71A5F1"/>
</radialGradient>
<radialGradient id="paint2_radial_5085_23374" cx="0" cy="0" r="1" gradientUnits="userSpaceOnUse" gradientTransform="translate(41.0918 122.373) scale(18.8757 15.7759)">
<stop offset="0.82" stop-color="#0B5CFF" stop-opacity="0"/>
<stop offset="0.98" stop-color="#003CB3"/>
</radialGradient>
<radialGradient id="paint3_radial_5085_23374" cx="0" cy="0" r="1" gradientUnits="userSpaceOnUse" gradientTransform="translate(41.0917 125.621) scale(18.8689 15.7703)">
<stop offset="0.8" stop-color="#0B5CFF" stop-opacity="0"/>
<stop offset="1" stop-color="#71A5F1"/>
</radialGradient>
<radialGradient id="paint4_radial_5085_23374" cx="0" cy="0" r="1" gradientUnits="userSpaceOnUse" gradientTransform="translate(41.0918 193.373) scale(18.8757 15.7759)">
<stop offset="0.82" stop-color="#0B5CFF" stop-opacity="0"/>
<stop offset="0.98" stop-color="#003CB3"/>
</radialGradient>
<radialGradient id="paint5_radial_5085_23374" cx="0" cy="0" r="1" gradientUnits="userSpaceOnUse" gradientTransform="translate(41.0917 196.621) scale(18.8689 15.7703)">
<stop offset="0.8" stop-color="#0B5CFF" stop-opacity="0"/>
<stop offset="1" stop-color="#71A5F1"/>
</radialGradient>
<radialGradient id="paint6_radial_5085_23374" cx="0" cy="0" r="1" gradientUnits="userSpaceOnUse" gradientTransform="translate(41 265.373) scale(18.8757 15.7759)">
<stop offset="0.82" stop-color="#0B5CFF" stop-opacity="0"/>
<stop offset="0.98" stop-color="#003CB3"/>
</radialGradient>
<radialGradient id="paint7_radial_5085_23374" cx="0" cy="0" r="1" gradientUnits="userSpaceOnUse" gradientTransform="translate(40.9999 268.621) scale(18.8689 15.7703)">
<stop offset="0.8" stop-color="#0B5CFF" stop-opacity="0"/>
<stop offset="1" stop-color="#71A5F1"/>
</radialGradient>
<radialGradient id="paint8_radial_5085_23374" cx="0" cy="0" r="1" gradientUnits="userSpaceOnUse" gradientTransform="translate(113.273 265.373) scale(18.8757 15.7759)">
<stop offset="0.82" stop-color="#0B5CFF" stop-opacity="0"/>
<stop offset="0.98" stop-color="#003CB3"/>
</radialGradient>
<radialGradient id="paint9_radial_5085_23374" cx="0" cy="0" r="1" gradientUnits="userSpaceOnUse" gradientTransform="translate(113.273 268.621) scale(18.8689 15.7702)">
<stop offset="0.8" stop-color="#0B5CFF" stop-opacity="0"/>
<stop offset="1" stop-color="#71A5F1"/>
</radialGradient>
<radialGradient id="paint10_radial_5085_23374" cx="0" cy="0" r="1" gradientUnits="userSpaceOnUse" gradientTransform="translate(41.0918 337.373) scale(18.8757 15.7759)">
<stop offset="0.82" stop-color="#0B5CFF" stop-opacity="0"/>
<stop offset="0.98" stop-color="#003CB3"/>
</radialGradient>
<radialGradient id="paint11_radial_5085_23374" cx="0" cy="0" r="1" gradientUnits="userSpaceOnUse" gradientTransform="translate(41.0917 340.621) scale(18.8689 15.7703)">
<stop offset="0.8" stop-color="#0B5CFF" stop-opacity="0"/>
<stop offset="1" stop-color="#71A5F1"/>
</radialGradient>
<radialGradient id="paint12_radial_5085_23374" cx="0" cy="0" r="1" gradientUnits="userSpaceOnUse" gradientTransform="translate(113.092 337.373) scale(18.8757 15.7759)">
<stop offset="0.82" stop-color="#0B5CFF" stop-opacity="0"/>
<stop offset="0.98" stop-color="#003CB3"/>
</radialGradient>
<radialGradient id="paint13_radial_5085_23374" cx="0" cy="0" r="1" gradientUnits="userSpaceOnUse" gradientTransform="translate(113.092 340.621) scale(18.8689 15.7703)">
<stop offset="0.8" stop-color="#0B5CFF" stop-opacity="0"/>
<stop offset="1" stop-color="#71A5F1"/>
</radialGradient>
<radialGradient id="paint14_radial_5085_23374" cx="0" cy="0" r="1" gradientUnits="userSpaceOnUse" gradientTransform="translate(185 121.373) scale(18.8757 15.7759)">
<stop offset="0.82" stop-color="#0B5CFF" stop-opacity="0"/>
<stop offset="0.98" stop-color="#003CB3"/>
</radialGradient>
<radialGradient id="paint15_radial_5085_23374" cx="0" cy="0" r="1" gradientUnits="userSpaceOnUse" gradientTransform="translate(185 124.621) scale(18.8689 15.7702)">
<stop offset="0.8" stop-color="#0B5CFF" stop-opacity="0"/>
<stop offset="1" stop-color="#71A5F1"/>
</radialGradient>
<radialGradient id="paint16_radial_5085_23374" cx="0" cy="0" r="1" gradientUnits="userSpaceOnUse" gradientTransform="translate(113.092 49.3731) scale(18.8757 15.7759)">
<stop offset="0.82" stop-color="#0B5CFF" stop-opacity="0"/>
<stop offset="0.98" stop-color="#003CB3"/>
</radialGradient>
<radialGradient id="paint17_radial_5085_23374" cx="0" cy="0" r="1" gradientUnits="userSpaceOnUse" gradientTransform="translate(113.092 52.6211) scale(18.8689 15.7703)">
<stop offset="0.8" stop-color="#0B5CFF" stop-opacity="0"/>
<stop offset="1" stop-color="#71A5F1"/>
</radialGradient>
<radialGradient id="paint18_radial_5085_23374" cx="0" cy="0" r="1" gradientUnits="userSpaceOnUse" gradientTransform="translate(113 121.373) scale(18.8757 15.7759)">
<stop offset="0.82" stop-color="#0B5CFF" stop-opacity="0"/>
<stop offset="0.98" stop-color="#003CB3"/>
</radialGradient>
<radialGradient id="paint19_radial_5085_23374" cx="0" cy="0" r="1" gradientUnits="userSpaceOnUse" gradientTransform="translate(113 124.621) scale(18.8689 15.7702)">
<stop offset="0.8" stop-color="#0B5CFF" stop-opacity="0"/>
<stop offset="1" stop-color="#71A5F1"/>
</radialGradient>
<radialGradient id="paint20_radial_5085_23374" cx="0" cy="0" r="1" gradientUnits="userSpaceOnUse" gradientTransform="translate(113 193.373) scale(18.8757 15.7759)">
<stop offset="0.82" stop-color="#0B5CFF" stop-opacity="0"/>
<stop offset="0.98" stop-color="#003CB3"/>
</radialGradient>
<radialGradient id="paint21_radial_5085_23374" cx="0" cy="0" r="1" gradientUnits="userSpaceOnUse" gradientTransform="translate(113 196.621) scale(18.8689 15.7702)">
<stop offset="0.8" stop-color="#0B5CFF" stop-opacity="0"/>
<stop offset="1" stop-color="#71A5F1"/>
</radialGradient>
<radialGradient id="paint22_radial_5085_23374" cx="0" cy="0" r="1" gradientUnits="userSpaceOnUse" gradientTransform="translate(185.092 49.3731) scale(18.8757 15.7759)">
<stop offset="0.82" stop-color="#0B5CFF" stop-opacity="0"/>
<stop offset="0.98" stop-color="#003CB3"/>
</radialGradient>
<radialGradient id="paint23_radial_5085_23374" cx="0" cy="0" r="1" gradientUnits="userSpaceOnUse" gradientTransform="translate(185.092 52.6211) scale(18.8689 15.7703)">
<stop offset="0.8" stop-color="#0B5CFF" stop-opacity="0"/>
<stop offset="1" stop-color="#71A5F1"/>
</radialGradient>
<radialGradient id="paint24_radial_5085_23374" cx="0" cy="0" r="1" gradientUnits="userSpaceOnUse" gradientTransform="translate(185 265.373) scale(18.8757 15.7759)">
<stop offset="0.82" stop-color="#0B5CFF" stop-opacity="0"/>
<stop offset="0.98" stop-color="#003CB3"/>
</radialGradient>
<radialGradient id="paint25_radial_5085_23374" cx="0" cy="0" r="1" gradientUnits="userSpaceOnUse" gradientTransform="translate(185 268.621) scale(18.8689 15.7702)">
<stop offset="0.8" stop-color="#0B5CFF" stop-opacity="0"/>
<stop offset="1" stop-color="#71A5F1"/>
</radialGradient>
<radialGradient id="paint26_radial_5085_23374" cx="0" cy="0" r="1" gradientUnits="userSpaceOnUse" gradientTransform="translate(257.092 49.3731) scale(18.8757 15.7759)">
<stop offset="0.82" stop-color="#0B5CFF" stop-opacity="0"/>
<stop offset="0.98" stop-color="#003CB3"/>
</radialGradient>
<radialGradient id="paint27_radial_5085_23374" cx="0" cy="0" r="1" gradientUnits="userSpaceOnUse" gradientTransform="translate(257.092 52.6211) scale(18.8689 15.7703)">
<stop offset="0.8" stop-color="#0B5CFF" stop-opacity="0"/>
<stop offset="1" stop-color="#71A5F1"/>
</radialGradient>
<radialGradient id="paint28_radial_5085_23374" cx="0" cy="0" r="1" gradientUnits="userSpaceOnUse" gradientTransform="translate(257 121.373) scale(18.8757 15.7759)">
<stop offset="0.82" stop-color="#0B5CFF" stop-opacity="0"/>
<stop offset="0.98" stop-color="#003CB3"/>
</radialGradient>
<radialGradient id="paint29_radial_5085_23374" cx="0" cy="0" r="1" gradientUnits="userSpaceOnUse" gradientTransform="translate(257 124.621) scale(18.8689 15.7702)">
<stop offset="0.8" stop-color="#0B5CFF" stop-opacity="0"/>
<stop offset="1" stop-color="#71A5F1"/>
</radialGradient>
<radialGradient id="paint30_radial_5085_23374" cx="0" cy="0" r="1" gradientUnits="userSpaceOnUse" gradientTransform="translate(185 193.373) scale(18.8757 15.7759)">
<stop offset="0.82" stop-color="#0B5CFF" stop-opacity="0"/>
<stop offset="0.98" stop-color="#003CB3"/>
</radialGradient>
<radialGradient id="paint31_radial_5085_23374" cx="0" cy="0" r="1" gradientUnits="userSpaceOnUse" gradientTransform="translate(185 196.621) scale(18.8689 15.7703)">
<stop offset="0.8" stop-color="#0B5CFF" stop-opacity="0"/>
<stop offset="1" stop-color="#71A5F1"/>
</radialGradient>
<clipPath id="clip0_5085_23374">
<rect width="18" height="18" fill="white" transform="translate(32.0918 42)"/>
</clipPath>
<clipPath id="clip1_5085_23374">
<rect width="18" height="18" fill="white" transform="translate(32.0918 115)"/>
</clipPath>
<clipPath id="clip2_5085_23374">
<rect width="18" height="18" fill="white" transform="translate(32.0918 186)"/>
</clipPath>
<clipPath id="clip3_5085_23374">
<rect width="18" height="18" fill="white" transform="translate(32 258)"/>
</clipPath>
<clipPath id="clip4_5085_23374">
<rect width="18" height="18" fill="white" transform="translate(104.273 258)"/>
</clipPath>
<clipPath id="clip5_5085_23374">
<rect width="18" height="18" fill="white" transform="translate(32.0918 330)"/>
</clipPath>
<clipPath id="clip6_5085_23374">
<rect width="18" height="18" fill="white" transform="translate(104.092 330)"/>
</clipPath>
<clipPath id="clip7_5085_23374">
<rect width="18" height="18" fill="white" transform="translate(176 114)"/>
</clipPath>
<clipPath id="clip8_5085_23374">
<rect width="18" height="18" fill="white" transform="translate(104.092 42)"/>
</clipPath>
<clipPath id="clip9_5085_23374">
<rect width="18" height="18" fill="white" transform="translate(104 114)"/>
</clipPath>
<clipPath id="clip10_5085_23374">
<rect width="18" height="18" fill="white" transform="translate(104 186)"/>
</clipPath>
<clipPath id="clip11_5085_23374">
<rect width="18" height="18" fill="white" transform="translate(176.092 42)"/>
</clipPath>
<clipPath id="clip12_5085_23374">
<rect width="18" height="18" fill="white" transform="translate(176 258)"/>
</clipPath>
<clipPath id="clip13_5085_23374">
<rect width="18" height="18" fill="white" transform="translate(248.092 42)"/>
</clipPath>
<clipPath id="clip14_5085_23374">
<rect width="18" height="18" fill="white" transform="translate(248 114)"/>
</clipPath>
<clipPath id="clip15_5085_23374">
<rect width="18" height="18" fill="white" transform="translate(176 186)"/>
</clipPath>
</defs>
</svg>
